<svg width="23" height="24" viewBox="0 0 23 24" fill="none" xmlns="http://www.w3.org/2000/svg">
<path d="M9 9.5V11.5H7V9.5H9ZM13 9.5V11.5H11V9.5H13ZM17 9.5V11.5H15V9.5H17ZM19 2.5C19.5304 2.5 20.0391 2.71071 20.4142 3.08579C20.7893 3.46086 21 3.96957 21 4.5V18.5C21 19.0304 20.7893 19.5391 20.4142 19.9142C20.0391 20.2893 19.5304 20.5 19 20.5H5C4.46957 20.5 3.96086 20.2893 3.58579 19.9142C3.21071 19.5391 3 19.0304 3 18.5V4.5C3 3.96957 3.21071 3.46086 3.58579 3.08579C3.96086 2.71071 4.46957 2.5 5 2.5H6V0.5H8V2.5H16V0.5H18V2.5H19ZM19 18.5V7.5H5V18.5H19ZM9 13.5V15.5H7V13.5H9ZM13 13.5V15.5H11V13.5H13ZM17 13.5V15.5H15V13.5H17Z" fill="#4C4C4C"/>
</svg>
