<svg width="29" height="24" viewBox="0 0 29 24" fill="none" xmlns="http://www.w3.org/2000/svg">
<path d="M14.28 10.8732C13.5302 10.8653 12.7995 10.6358 12.1799 10.2135C11.5602 9.79114 11.0794 9.19494 10.7979 8.49992C10.5164 7.80491 10.4469 7.04214 10.598 6.30767C10.7491 5.5732 11.1141 4.89985 11.6471 4.3724C12.1801 3.84496 12.8573 3.48699 13.5933 3.34358C14.3293 3.20017 15.0913 3.27772 15.7833 3.56648C16.4753 3.85523 17.0665 4.34227 17.4823 4.96628C17.8981 5.59029 18.12 6.32337 18.12 7.07323C18.113 8.08581 17.7049 9.05432 16.9851 9.76658C16.2653 10.4788 15.2926 10.8768 14.28 10.8732ZM14.28 4.60656C13.7939 4.61445 13.321 4.76579 12.9207 5.04157C12.5203 5.31736 12.2104 5.7053 12.0298 6.15666C11.8493 6.60803 11.8061 7.10268 11.9057 7.5785C12.0054 8.05433 12.2434 8.49009 12.5899 8.83107C12.9364 9.17205 13.376 9.40304 13.8533 9.49502C14.3307 9.587 14.8246 9.53587 15.273 9.34806C15.7214 9.16024 16.1043 8.84412 16.3736 8.43939C16.6429 8.03466 16.7866 7.55937 16.7867 7.07323C16.7796 6.41427 16.512 5.7849 16.0423 5.32268C15.5726 4.86047 14.939 4.603 14.28 4.60656Z" fill="#7C7C7C"/>
<path d="M14.28 10.8732C13.5301 10.8653 12.7994 10.6358 12.1798 10.2135C11.5602 9.79114 11.0793 9.19494 10.7979 8.49992C10.5164 7.80491 10.4468 7.04214 10.5979 6.30767C10.749 5.5732 11.1141 4.89985 11.647 4.3724C12.18 3.84496 12.8572 3.48699 13.5932 3.34358C14.3292 3.20017 15.0912 3.27772 15.7832 3.56648C16.4753 3.85523 17.0664 4.34227 17.4822 4.96628C17.898 5.59029 18.1199 6.32337 18.12 7.07323C18.1129 8.08581 17.7048 9.05432 16.985 9.76658C16.2653 10.4788 15.2925 10.8768 14.28 10.8732ZM14.28 4.60656C13.7939 4.61445 13.321 4.76579 12.9206 5.04157C12.5203 5.31736 12.2103 5.7053 12.0298 6.15666C11.8492 6.60803 11.806 7.10268 11.9057 7.5785C12.0053 8.05433 12.2433 8.49009 12.5898 8.83107C12.9363 9.17205 13.3759 9.40304 13.8533 9.49502C14.3306 9.587 14.8245 9.53587 15.2729 9.34806C15.7213 9.16024 16.1042 8.84412 16.3735 8.43939C16.6428 8.03466 16.7866 7.55937 16.7866 7.07323C16.7796 6.41427 16.512 5.7849 16.0422 5.32268C15.5725 4.86047 14.9389 4.603 14.28 4.60656ZM16.6066 11.7666C13.6496 11.252 10.6055 11.7203 7.93995 13.0999C7.75073 13.205 7.59405 13.36 7.48706 13.5482C7.38006 13.7363 7.32686 13.9502 7.33328 14.1666V16.5399C7.33328 16.7167 7.40352 16.8863 7.52855 17.0113C7.65357 17.1363 7.82314 17.2066 7.99995 17.2066C8.17676 17.2066 8.34633 17.1363 8.47135 17.0113C8.59638 16.8863 8.66662 16.7167 8.66662 16.5399V14.2532C11.1384 13.013 13.9493 12.6195 16.6666 13.1332L16.6066 11.7666Z" fill="#7C7C7C"/>
<path d="M24.0001 14.6668H19.5334V13.6801C19.5334 13.5033 19.4632 13.3337 19.3382 13.2087C19.2131 13.0837 19.0436 13.0134 18.8667 13.0134C18.6899 13.0134 18.5204 13.0837 18.3953 13.2087C18.2703 13.3337 18.2001 13.5033 18.2001 13.6801V14.6668H13.3334C13.1566 14.6668 12.987 14.737 12.862 14.862C12.737 14.987 12.6667 15.1566 12.6667 15.3334V22.0001C12.6667 22.1769 12.737 22.3465 12.862 22.4715C12.987 22.5965 13.1566 22.6668 13.3334 22.6668H24.0001C24.1769 22.6668 24.3465 22.5965 24.4715 22.4715C24.5965 22.3465 24.6667 22.1769 24.6667 22.0001V15.3334C24.6667 15.1566 24.5965 14.987 24.4715 14.862C24.3465 14.737 24.1769 14.6668 24.0001 14.6668ZM23.3334 21.3334H14.0001V16.0001H18.2001V16.2734C18.2001 16.4502 18.2703 16.6198 18.3953 16.7448C18.5204 16.8699 18.6899 16.9401 18.8667 16.9401C19.0436 16.9401 19.2131 16.8699 19.3382 16.7448C19.4632 16.6198 19.5334 16.4502 19.5334 16.2734V16.0001H23.3334V21.3334Z" fill="#7C7C7C"/>
<path d="M16.5399 18.28H20.5133V19.2133H16.5399V18.28ZM9.22659 8.16C7.38088 8.19088 5.56718 8.64715 3.92659 9.49333C3.74816 9.58758 3.5987 9.72854 3.4942 9.90116C3.38969 10.0738 3.33406 10.2715 3.33325 10.4733V12.54C3.33325 12.7168 3.40349 12.8864 3.52851 13.0114C3.65354 13.1364 3.82311 13.2067 3.99992 13.2067C4.17673 13.2067 4.3463 13.1364 4.47132 13.0114C4.59635 12.8864 4.66659 12.7168 4.66659 12.54V10.6067C6.23412 9.82641 7.96963 9.44405 9.71992 9.49333C9.49109 9.07543 9.32488 8.62619 9.22659 8.16ZM24.0733 9.48666C22.6018 8.7148 20.9847 8.26056 19.3266 8.15333C19.2286 8.61866 19.0647 9.06762 18.8399 9.48666C20.4019 9.52427 21.9363 9.90673 23.3333 10.6067V12.54C23.3333 12.7168 23.4035 12.8864 23.5285 13.0114C23.6535 13.1364 23.8231 13.2067 23.9999 13.2067C24.1767 13.2067 24.3463 13.1364 24.4713 13.0114C24.5963 12.8864 24.6666 12.7168 24.6666 12.54V10.4733C24.667 10.2704 24.6119 10.0712 24.5074 9.89735C24.4028 9.72345 24.2527 9.58144 24.0733 9.48666ZM9.10659 7.07333V6.62666C8.58433 6.55677 8.10915 6.28815 7.77997 5.87673C7.45078 5.4653 7.29295 4.94277 7.33934 4.4179C7.38573 3.89304 7.63276 3.40628 8.029 3.05897C8.42524 2.71165 8.94017 2.53054 9.46659 2.55333C10.0141 2.55234 10.5404 2.76524 10.9333 3.14666C11.28 2.86101 11.6607 2.61918 12.0666 2.42666C11.613 1.9051 11.012 1.53322 10.3428 1.36004C9.67368 1.18686 8.96774 1.22051 8.31808 1.45656C7.66842 1.6926 7.10553 2.11996 6.70361 2.6823C6.30168 3.24464 6.07958 3.91557 6.06659 4.60666C6.08058 5.4525 6.40938 6.26274 6.98879 6.87913C7.56819 7.49551 8.35656 7.87376 9.19992 7.94C9.1433 7.65443 9.11206 7.36441 9.10659 7.07333ZM18.5133 1.22C18.0551 1.2201 17.6016 1.31153 17.1792 1.48896C16.7568 1.66639 16.374 1.92624 16.0533 2.25333C16.5035 2.41763 16.9296 2.64187 17.3199 2.92C17.6312 2.70395 17.9952 2.57642 18.3732 2.551C18.7512 2.52559 19.129 2.60324 19.4664 2.77568C19.8037 2.94812 20.088 3.20888 20.2888 3.53016C20.4896 3.85144 20.5994 4.2212 20.6066 4.6C20.6024 4.98909 20.4881 5.36904 20.2769 5.69585C20.0657 6.02266 19.7663 6.28298 19.4133 6.44666C19.4403 6.65221 19.4537 6.85934 19.4533 7.06666C19.4512 7.33463 19.4289 7.60205 19.3866 7.86666C20.1128 7.67995 20.757 7.25838 21.2188 6.66757C21.6806 6.07676 21.9341 5.34985 21.9399 4.6C21.9311 3.6982 21.5658 2.83653 20.9237 2.20322C20.2817 1.56991 19.4151 1.21643 18.5133 1.22Z" fill="#7C7C7C"/>
</svg>
