<svg width="24" height="24" viewBox="0 0 24 24" fill="none" xmlns="http://www.w3.org/2000/svg">
<path d="M12.28 10.8732C11.5302 10.8653 10.7995 10.6358 10.1799 10.2135C9.56024 9.79114 9.07942 9.19494 8.79793 8.49992C8.51644 7.80491 8.44687 7.04214 8.59798 6.30767C8.74909 5.5732 9.11412 4.89985 9.64712 4.3724C10.1801 3.84496 10.8573 3.48699 11.5933 3.34358C12.3293 3.20017 13.0913 3.27772 13.7833 3.56648C14.4753 3.85523 15.0665 4.34227 15.4823 4.96628C15.8981 5.59029 16.12 6.32337 16.12 7.07323C16.113 8.08581 15.7049 9.05432 14.9851 9.76658C14.2653 10.4788 13.2926 10.8768 12.28 10.8732ZM12.28 4.60656C11.7939 4.61445 11.321 4.76579 10.9207 5.04157C10.5203 5.31736 10.2104 5.7053 10.0298 6.15666C9.84926 6.60803 9.80608 7.10268 9.90573 7.5785C10.0054 8.05433 10.2434 8.49009 10.5899 8.83107C10.9364 9.17205 11.376 9.40304 11.8533 9.49502C12.3307 9.587 12.8246 9.53587 13.273 9.34805C13.7214 9.16024 14.1043 8.84412 14.3736 8.43939C14.6429 8.03466 14.7866 7.55937 14.7867 7.07323C14.7796 6.41427 14.512 5.7849 14.0423 5.32268C13.5726 4.86047 12.939 4.603 12.28 4.60656Z" fill="white"/>
<path d="M12.28 10.8732C11.5301 10.8653 10.7994 10.6358 10.1798 10.2135C9.56017 9.79114 9.07935 9.19494 8.79786 8.49992C8.51637 7.80491 8.4468 7.04214 8.59791 6.30767C8.74902 5.5732 9.11405 4.89985 9.64705 4.3724C10.18 3.84496 10.8572 3.48699 11.5932 3.34358C12.3292 3.20017 13.0912 3.27772 13.7832 3.56648C14.4753 3.85523 15.0664 4.34227 15.4822 4.96628C15.898 5.59029 16.1199 6.32337 16.12 7.07323C16.1129 8.08581 15.7048 9.05432 14.985 9.76658C14.2653 10.4788 13.2925 10.8768 12.28 10.8732ZM12.28 4.60656C11.7939 4.61445 11.321 4.76579 10.9206 5.04157C10.5203 5.31736 10.2103 5.7053 10.0298 6.15666C9.84919 6.60803 9.80601 7.10268 9.90566 7.5785C10.0053 8.05433 10.2433 8.49009 10.5898 8.83107C10.9363 9.17205 11.3759 9.40304 11.8533 9.49502C12.3306 9.587 12.8245 9.53587 13.2729 9.34805C13.7213 9.16024 14.1042 8.84412 14.3735 8.43939C14.6428 8.03466 14.7866 7.55937 14.7866 7.07323C14.7796 6.41427 14.512 5.7849 14.0422 5.32268C13.5725 4.86047 12.9389 4.603 12.28 4.60656ZM14.6066 11.7666C11.6496 11.252 8.60552 11.7203 5.93995 13.0999C5.75073 13.205 5.59405 13.36 5.48706 13.5482C5.38006 13.7363 5.32686 13.9502 5.33328 14.1666V16.5399C5.33328 16.7167 5.40352 16.8863 5.52855 17.0113C5.65357 17.1363 5.82314 17.2066 5.99995 17.2066C6.17676 17.2066 6.34633 17.1363 6.47135 17.0113C6.59638 16.8863 6.66662 16.7167 6.66662 16.5399V14.2532C9.1384 13.013 11.9493 12.6195 14.6666 13.1332L14.6066 11.7666Z" fill="white"/>
<path d="M22.0001 14.6665H17.5334V13.6799C17.5334 13.503 17.4632 13.3335 17.3382 13.2084C17.2131 13.0834 17.0436 13.0132 16.8667 13.0132C16.6899 13.0132 16.5204 13.0834 16.3953 13.2084C16.2703 13.3335 16.2001 13.503 16.2001 13.6799V14.6665H11.3334C11.1566 14.6665 10.987 14.7368 10.862 14.8618C10.737 14.9868 10.6667 15.1564 10.6667 15.3332V21.9999C10.6667 22.1767 10.737 22.3462 10.862 22.4713C10.987 22.5963 11.1566 22.6665 11.3334 22.6665H22.0001C22.1769 22.6665 22.3465 22.5963 22.4715 22.4713C22.5965 22.3462 22.6667 22.1767 22.6667 21.9999V15.3332C22.6667 15.1564 22.5965 14.9868 22.4715 14.8618C22.3465 14.7368 22.1769 14.6665 22.0001 14.6665ZM21.3334 21.3332H12.0001V15.9999H16.2001V16.2732C16.2001 16.45 16.2703 16.6196 16.3953 16.7446C16.5204 16.8696 16.6899 16.9398 16.8667 16.9398C17.0436 16.9398 17.2131 16.8696 17.3382 16.7446C17.4632 16.6196 17.5334 16.45 17.5334 16.2732V15.9999H21.3334V21.3332Z" fill="white"/>
<path d="M14.5399 18.2802H18.5133V19.2136H14.5399V18.2802ZM7.22659 8.16024C5.38088 8.19112 3.56718 8.6474 1.92659 9.49358C1.74816 9.58782 1.5987 9.72879 1.4942 9.9014C1.38969 10.074 1.33406 10.2718 1.33325 10.4736V12.5402C1.33325 12.7171 1.40349 12.8866 1.52851 13.0116C1.65354 13.1367 1.82311 13.2069 1.99992 13.2069C2.17673 13.2069 2.3463 13.1367 2.47132 13.0116C2.59635 12.8866 2.66659 12.7171 2.66659 12.5402V10.6069C4.23412 9.82666 5.96963 9.4443 7.71992 9.49358C7.49109 9.07568 7.32488 8.62644 7.22659 8.16024ZM22.0733 9.48691C20.6018 8.71505 18.9847 8.2608 17.3266 8.15357C17.2286 8.6189 17.0647 9.06787 16.8399 9.48691C18.4019 9.52451 19.9363 9.90697 21.3333 10.6069V12.5402C21.3333 12.7171 21.4035 12.8866 21.5285 13.0116C21.6535 13.1367 21.8231 13.2069 21.9999 13.2069C22.1767 13.2069 22.3463 13.1367 22.4713 13.0116C22.5963 12.8866 22.6666 12.7171 22.6666 12.5402V10.4736C22.667 10.2707 22.6119 10.0715 22.5074 9.89759C22.4028 9.72369 22.2527 9.58168 22.0733 9.48691ZM7.10659 7.07358V6.62691C6.58433 6.55702 6.10915 6.2884 5.77997 5.87697C5.45078 5.46554 5.29295 4.94301 5.33934 4.41814C5.38573 3.89328 5.63276 3.40653 6.029 3.05921C6.42524 2.7119 6.94017 2.53078 7.46659 2.55357C8.01413 2.55258 8.54041 2.76549 8.93325 3.14691C9.28001 2.86125 9.66066 2.61943 10.0666 2.42691C9.61299 1.90535 9.01201 1.53347 8.34284 1.36029C7.67368 1.18711 6.96774 1.22076 6.31808 1.4568C5.66842 1.69284 5.10553 2.1202 4.70361 2.68254C4.30168 3.24489 4.07958 3.91582 4.06659 4.60691C4.08058 5.45275 4.40938 6.26299 4.98879 6.87937C5.56819 7.49576 6.35656 7.87401 7.19992 7.94024C7.1433 7.65467 7.11206 7.36465 7.10659 7.07358ZM16.5133 1.22024C16.0551 1.22034 15.6016 1.31178 15.1792 1.4892C14.7568 1.66663 14.374 1.92649 14.0533 2.25357C14.5035 2.41787 14.9296 2.64211 15.3199 2.92024C15.6312 2.70419 15.9952 2.57666 16.3732 2.55125C16.7512 2.52583 17.129 2.60348 17.4664 2.77592C17.8037 2.94836 18.088 3.20912 18.2888 3.53041C18.4896 3.85169 18.5994 4.22144 18.6066 4.60024C18.6024 4.98933 18.4881 5.36928 18.2769 5.69609C18.0657 6.02291 17.7663 6.28323 17.4133 6.44691C17.4403 6.65246 17.4537 6.85958 17.4533 7.06691C17.4512 7.33487 17.4289 7.6023 17.3866 7.86691C18.1128 7.6802 18.757 7.25863 19.2188 6.66781C19.6806 6.077 19.9341 5.3501 19.9399 4.60024C19.9311 3.69844 19.5658 2.83678 18.9237 2.20347C18.2817 1.57016 17.4151 1.21668 16.5133 1.22024Z" fill="white"/>
</svg>
