<svg width="71" height="70" viewBox="0 0 71 70" fill="none" xmlns="http://www.w3.org/2000/svg">
<rect x="1" y="0.5" width="69" height="69" rx="4.5" fill="white"/>
<rect x="1" y="0.5" width="69" height="69" rx="4.5" stroke="#676363" stroke-dasharray="2 2"/>
<path d="M52.1666 34.9999C52.1666 34.0794 51.4205 33.3333 50.5 33.3333C49.5795 33.3333 48.8333 34.0794 48.8333 34.9999H52.1666ZM35.5 21.6666C36.4205 21.6666 37.1666 20.9204 37.1666 19.9999C37.1666 19.0794 36.4205 18.3333 35.5 18.3333V21.6666ZM48 48.3333H23V51.6666H48V48.3333ZM22.1666 47.4999V22.4999H18.8333V47.4999H22.1666ZM48.8333 34.9999V47.4999H52.1666V34.9999H48.8333ZM23 21.6666H35.5V18.3333H23V21.6666ZM23 48.3333C22.5397 48.3333 22.1666 47.9602 22.1666 47.4999H18.8333C18.8333 49.8011 20.6988 51.6666 23 51.6666V48.3333ZM48 51.6666C50.3011 51.6666 52.1666 49.8011 52.1666 47.4999H48.8333C48.8333 47.9602 48.4602 48.3333 48 48.3333V51.6666ZM22.1666 22.4999C22.1666 22.0397 22.5397 21.6666 23 21.6666V18.3333C20.6988 18.3333 18.8333 20.1987 18.8333 22.4999H22.1666Z" fill="#8A8787"/>
<path d="M20.5 44.1665L29.4109 35.9981C30.0324 35.4284 30.9816 35.4126 31.6217 35.9613L42.1667 44.9998" stroke="#8A8787" stroke-width="2" stroke-linecap="round" stroke-linejoin="round"/>
<path d="M38.8333 40.8332L42.8112 36.8553C43.3976 36.2689 44.3261 36.2029 44.9897 36.7006L50.5 40.8332" stroke="#8A8787" stroke-width="2" stroke-linecap="round" stroke-linejoin="round"/>
<path d="M40.5 25H50.5" stroke="#8A8787" stroke-width="2" stroke-linecap="round" stroke-linejoin="round"/>
<path d="M45.5 20V30" stroke="#8A8787" stroke-width="2" stroke-linecap="round" stroke-linejoin="round"/>
</svg>
