<svg width="54" height="54" viewBox="0 0 54 54" fill="none" xmlns="http://www.w3.org/2000/svg">
<rect width="54" height="54" rx="27" fill="black"/>
<path d="M27 19C28.0609 19 29.0783 19.4214 29.8284 20.1716C30.5786 20.9217 31 21.9391 31 23C31 24.0609 30.5786 25.0783 29.8284 25.8284C29.0783 26.5786 28.0609 27 27 27C25.9391 27 24.9217 26.5786 24.1716 25.8284C23.4214 25.0783 23 24.0609 23 23C23 21.9391 23.4214 20.9217 24.1716 20.1716C24.9217 19.4214 25.9391 19 27 19ZM27 21C26.4696 21 25.9609 21.2107 25.5858 21.5858C25.2107 21.9609 25 22.4696 25 23C25 23.5304 25.2107 24.0391 25.5858 24.4142C25.9609 24.7893 26.4696 25 27 25C27.5304 25 28.0391 24.7893 28.4142 24.4142C28.7893 24.0391 29 23.5304 29 23C29 22.4696 28.7893 21.9609 28.4142 21.5858C28.0391 21.2107 27.5304 21 27 21ZM27 28C29.67 28 35 29.33 35 32V35H19V32C19 29.33 24.33 28 27 28ZM27 29.9C24.03 29.9 20.9 31.36 20.9 32V33.1H33.1V32C33.1 31.36 29.97 29.9 27 29.9Z" fill="white"/>
</svg>
