<svg width="25" height="25" viewBox="0 0 25 25" fill="none" xmlns="http://www.w3.org/2000/svg">
<rect x="0.166748" y="0.5" width="24" height="24" rx="12" fill="#0C101E"/>
<path d="M12.1667 20C11.9306 20 11.7329 19.92 11.5734 19.76C11.414 19.6 11.334 19.4022 11.3334 19.1667V13.3333H5.50008C5.26397 13.3333 5.0662 13.2533 4.90675 13.0933C4.74731 12.9333 4.66731 12.7356 4.66675 12.5C4.6662 12.2644 4.7462 12.0667 4.90675 11.9067C5.06731 11.7467 5.26508 11.6667 5.50008 11.6667H11.3334V5.83334C11.3334 5.59722 11.4134 5.39945 11.5734 5.24C11.7334 5.08056 11.9312 5.00056 12.1667 5C12.4023 4.99945 12.6004 5.07945 12.7609 5.24C12.9215 5.40056 13.0012 5.59834 13.0001 5.83334V11.6667H18.8334C19.0695 11.6667 19.2676 11.7467 19.4276 11.9067C19.5876 12.0667 19.6673 12.2644 19.6667 12.5C19.6662 12.7356 19.5862 12.9336 19.4267 13.0942C19.2673 13.2547 19.0695 13.3344 18.8334 13.3333H13.0001V19.1667C13.0001 19.4028 12.9201 19.6008 12.7601 19.7608C12.6001 19.9208 12.4023 20.0006 12.1667 20Z" fill="white"/>
</svg>
