<svg width="24" height="25" viewBox="0 0 24 25" fill="none" xmlns="http://www.w3.org/2000/svg">
<path d="M12.025 21.5C11.7416 21.5 11.5043 21.404 11.313 21.212C11.1216 21.02 11.0256 20.7827 11.025 20.5V19.35C10.275 19.1833 9.61662 18.8917 9.04996 18.475C8.48329 18.0583 8.02496 17.475 7.67496 16.725C7.55829 16.4917 7.55429 16.246 7.66296 15.988C7.77162 15.73 7.96729 15.5423 8.24996 15.425C8.48329 15.325 8.72496 15.3293 8.97496 15.438C9.22496 15.5467 9.41662 15.7257 9.54996 15.975C9.83329 16.475 10.1916 16.8543 10.625 17.113C11.0583 17.3717 11.5916 17.5007 12.225 17.5C12.9083 17.5 13.4873 17.346 13.962 17.038C14.4366 16.73 14.6743 16.2507 14.675 15.6C14.675 15.0167 14.4916 14.5543 14.125 14.213C13.7583 13.8717 12.9083 13.484 11.575 13.05C10.1416 12.6 9.15829 12.0627 8.62496 11.438C8.09162 10.8133 7.82496 10.0507 7.82496 9.15C7.82496 8.06667 8.17496 7.225 8.87496 6.625C9.57496 6.025 10.2916 5.68334 11.025 5.6V4.5C11.025 4.21667 11.121 3.979 11.313 3.787C11.505 3.595 11.7423 3.49934 12.025 3.5C12.3076 3.50067 12.5453 3.59667 12.738 3.788C12.9306 3.97934 13.0263 4.21667 13.025 4.5V5.6C13.6583 5.7 14.2083 5.90434 14.675 6.213C15.1416 6.52167 15.525 6.90067 15.825 7.35C15.975 7.56667 16.0043 7.80834 15.913 8.075C15.8216 8.34167 15.634 8.53334 15.35 8.65C15.1166 8.75 14.875 8.75434 14.625 8.663C14.375 8.57167 14.1416 8.409 13.925 8.175C13.7083 7.941 13.454 7.762 13.162 7.638C12.87 7.514 12.5076 7.45134 12.075 7.45C11.3416 7.45 10.7833 7.61267 10.4 7.938C10.0166 8.26334 9.82496 8.66734 9.82496 9.15C9.82496 9.7 10.075 10.1333 10.575 10.45C11.075 10.7667 11.9416 11.1 13.175 11.45C14.325 11.7833 15.196 12.3127 15.788 13.038C16.38 13.7633 16.6756 14.6007 16.675 15.55C16.675 16.7333 16.325 17.6333 15.625 18.25C14.925 18.8667 14.0583 19.25 13.025 19.4V20.5C13.025 20.7833 12.929 21.021 12.737 21.213C12.545 21.405 12.3076 21.5007 12.025 21.5Z" fill="#2F2F2F"/>
</svg>
